<svg xmlns="http://www.w3.org/2000/svg" width="1937.917" height="1003.876" viewBox="0 0 1937.917 1003.876">
  <path id="BG" d="M4,564.8S-128.337,733.419,35.046,720.75c11.986-.929,72.3-7.378,81.153-22.133-47.216,17.706,26.558,55.333,70.824,22.133,27.609-17.474,48.421-19.815,66.4-32.461,15.882-11.173,29.51-21.764,61.971-30.617,13.054,1.4,38.685-15.276,64.922-17.706,22.333-2.068,57.775-8.251,81.153,0,59.02,20.657,98.768,33.57,116.565,39.47,22.383,12.1,81.153,41.314,81.153,41.314s29.51,19.182,54.594,28.034c25.408,11.01,33.237,17.122,44.265,22.133,7.746,3.521,16.231,11.8,38.363,14.755,92.253,31.749,182.469-39.559,239.4-64.922,16.779-7.475,34.524-22.435,49.8-32.461C1212.024,605.313,1298.778,460.688,1558,573.8c459.823,200.636,310-9,310-9l-29-775H4Z" transform="translate(46.594 210.204)" fill="#f8f9fe"/>
</svg>
